<svg version="1.2" baseProfile="tiny-ps" xmlns="http://www.w3.org/2000/svg" width="500" height="500" viewBox="0 0 500 500"><title>Empirici</title><defs><linearGradient id="lg0" gradientUnits="userSpaceOnUse" x1="-8.88%" y1="83.92%" x2="108.64%" y2="16.08%"><stop offset="0%" style="stop-color:rgb(0,0,0);"></stop><stop offset="19%" style="stop-color:rgb(1,14,24);"></stop><stop offset="36%" style="stop-color:rgb(14,57,74);"></stop><stop offset="38%" style="stop-color:rgb(16,60,77);"></stop><stop offset="68%" style="stop-color:rgb(31,99,110);"></stop><stop offset="83%" style="stop-color:rgb(48,141,137);"></stop><stop offset="100%" style="stop-color:rgb(51,147,141);"></stop></linearGradient></defs><g fill="#fafbfb"><path d="M 0 250 l 0 -250 250 0 250 0 0 250 0 250 -250 0 -250 0 0 -250 z "/></g><g fill="#c8d4d8"><path d="M 0 250 l 0 -250 250 0 250 0 0 250 0 250 -250 0 -250 0 0 -250 z  m 246.64 170.04 c 0.04 -23.50 0.10 -40.18 0.16 -37.04 l 0.10 5.70 0.06 -5.82 c 0.04 -4.74 -0.02 -5.88 -0.24 -6.06 -0.14 -0.12 -0.76 -0.36 -1.34 -0.54 -4.44 -1.30 -8.34 -4.90 -10.12 -9.28 -1.54 -3.82 -1.40 -8.68 0.34 -12.52 0.44 -1 1.04 -1.78 2.34 -3.12 2.02 -2.06 3.52 -3.20 5.66 -4.26 0.82 -0.40 1.84 -1.06 2.26 -1.46 l 0.74 -0.72 0 -39.60 c 0 -36.56 -0.02 -39.62 -0.34 -39.96 -0.30 -0.34 -0.80 -0.36 -7.26 -0.36 -6.94 0 -6.94 0 -7.34 0.46 -0.46 0.46 -0.54 0.88 -5.04 24.14 -1.10 5.66 -3.50 18 -5.32 27.40 -4.46 23.02 -10.98 56.62 -11.48 59.18 -0.38 2.02 -0.38 2.12 -0.04 3.20 0.28 0.84 31.94 73.48 35.82 82.16 0.36 0.80 0.72 1.40 0.82 1.34 0.10 -0.06 0.20 -18.72 0.22 -42.84 z  m 25.52 0.82 c 10.14 -23.20 18.44 -42.38 18.44 -42.62 0 -0.26 -1.12 -6.26 -2.50 -13.30 -3.68 -19.02 -10.02 -51.62 -14.30 -73.78 -4.72 -24.30 -4.72 -24.26 -5.14 -25.14 l -0.36 -0.72 -7.20 0 -7.18 0 -0.26 0.50 c -0.20 0.40 -0.24 8.42 -0.20 39.88 l 0.04 39.36 1.84 0.66 c 4.20 1.50 7.28 4.14 9.24 7.90 1.34 2.56 1.72 4.22 1.72 7.60 0 2.48 -0.06 3.12 -0.46 4.40 -0.92 2.92 -2.64 5.66 -4.70 7.52 -1.10 0.98 -2.74 2.18 -2.74 1.98 0 -0.06 -0.52 0.16 -1.16 0.48 -0.66 0.32 -1.78 0.78 -2.50 1.02 -1.20 0.38 -2.16 1 -1.56 1 0.16 0 0.22 11.26 0.22 42.70 0 23.48 0.08 42.70 0.16 42.70 0.10 0 8.46 -18.96 18.60 -42.14 z  m -114.88 -76.20 c -0.24 -0.46 -0.28 -2.52 -0.28 -12.50 0 -6.58 0.06 -11.96 0.16 -11.96 0.08 0 0.12 5.20 0.08 11.54 -0.06 12.24 -0.02 12.96 0.82 13.16 0.88 0.22 43.92 0 44.14 -0.22 0.22 -0.22 1.02 -4.10 3.38 -16.18 1.88 -9.58 1.78 -8.86 1.14 -9.02 -0.28 -0.06 -0.46 -0.20 -0.40 -0.30 0.06 -0.10 -9.86 -0.18 -23.88 -0.18 -25.46 0 -24.68 -0.02 -25.42 0.88 -0.36 0.44 -0.22 24.54 0.16 24.98 0.40 0.50 0.44 0.42 0.10 -0.20 z  m 185.16 0 c 0.34 -0.30 0.36 -0.96 0.36 -12.48 0 -13.18 0.04 -12.62 -1.06 -12.88 -0.72 -0.18 -47.62 -0.02 -47.98 0.18 -0.20 0.08 -0.36 0.36 -0.36 0.60 0.02 0.22 1.06 5.82 2.36 12.42 l 2.34 12 0.70 0.24 c 0.52 0.18 6.04 0.24 21.98 0.24 19.54 0.02 21.32 0 21.66 -0.32 z  m -0.30 -90.10 l 0.66 -0.64 0 -12.08 c 0 -7.98 0.06 -12.02 0.20 -11.94 0.30 0.18 0.24 -0.62 -0.08 -0.88 -0.20 -0.16 -24.44 -0.20 -92.78 -0.18 -90.64 0.06 -92.50 0.06 -92.92 0.44 -0.42 0.38 -0.42 0.44 -0.42 12.50 0 13.38 -0.06 12.82 1.26 13.20 0.38 0.12 36.56 0.20 92.04 0.20 l 91.38 0.02 0.66 -0.64 z  m 40.50 -8.30 c 1.08 -1.12 1.36 -1.94 1.40 -4.30 l 0.04 -2.06 0.12 2.30 0.12 2.30 0.04 -2.24 c 0.04 -2.42 -0.10 -3.06 -0.92 -3.90 l -0.52 -0.56 -9.28 0 c -10.08 0 -10 0 -11.06 1.12 -0.44 0.46 -0.48 0.70 -0.54 2.90 -0.06 2.10 -0.02 2.48 0.36 3.26 0.78 1.62 0.72 1.60 7.50 1.72 3.30 0.06 7.36 0.14 9 0.16 l 3.02 0.04 0.72 -0.74 z  m -245.48 -0.30 c 0.68 -0.74 0.84 -1.46 0.84 -3.88 0 -2.38 -0.16 -3.02 -0.96 -3.74 -0.36 -0.32 -1.02 -0.34 -10.10 -0.30 l -9.72 0.06 -0.70 0.68 c -0.64 0.62 -1.04 1.64 -0.52 1.32 0.12 -0.08 0.20 0.64 0.20 2.04 0 2.54 0.30 3.36 1.40 3.90 0.64 0.32 1.54 0.36 9.92 0.36 l 9.22 0 0.42 -0.44 z  m 135.02 -37.04 c 0.42 -0.68 0.44 -0.82 0.38 -9.78 -0.06 -8.64 -0.08 -9.12 -0.44 -9.52 l -0.38 -0.42 -21.66 0.04 -21.68 0.06 -0.54 0.58 c -0.38 0.38 -0.48 0.60 -0.30 0.66 0.18 0.08 0.24 2.02 0.24 8.78 0 9.38 0.04 9.76 1.06 9.96 0.24 0.06 0.62 0.14 0.84 0.18 0.22 0.06 9.78 0.10 21.24 0.12 l 20.82 0.02 0.42 -0.68 z  m -58.38 -44.62 c 0.14 -0.16 0.54 -0.30 0.92 -0.30 0.36 0 0.72 -0.10 0.78 -0.20 0.08 -0.12 -0.92 -1.32 -2.22 -2.66 -6.72 -6.98 -10.18 -12.66 -12.40 -20.32 -0.26 -0.94 -0.64 -1.86 -0.80 -2.04 -0.30 -0.32 -0.26 -0.36 0.46 -0.44 0.42 -0.04 -9.02 -0.08 -20.96 -0.10 l -21.70 -0.04 -0.54 0.56 -0.54 0.56 0 11.90 c 0 12.70 0 12.62 1 13.12 0.40 0.20 6.36 0.26 28.12 0.26 24.32 0 27.66 -0.04 27.88 -0.30 z  M289.22 125.28 C 289.22 103.78 271.80 86.38 250.32 86.38 228.82 86.38 211.42 103.78 211.42 125.28 211.42 146.76 228.82 164.18 250.32 164.18 271.80 164.18 289.22 146.76 289.22 125.28 Z M260.08 163.88  m 82.36 -0.02 c 0.34 -0.30 0.36 -0.96 0.36 -12.56 0 -11.66 -0.02 -12.26 -0.38 -12.58 -0.34 -0.30 -1.92 -0.32 -21.08 -0.28 -15.72 0.04 -20.78 0.12 -20.96 0.30 -0.12 0.12 -0.48 1.20 -0.78 2.40 -1.92 7.58 -5.66 13.90 -12.06 20.40 -1.12 1.12 -1.94 2.12 -1.86 2.20 0.34 0.36 3.60 0.40 29.40 0.44 24.86 0.02 27.02 0 27.36 -0.32 z  M259.60 43.34 C 259.60 38.20 255.42 34 250.26 34 245.10 34 240.92 38.20 240.92 43.34 240.92 48.50 245.10 52.68 250.26 52.68 255.42 52.68 259.60 48.50 259.60 43.34 Z M254.10 52.12 "/></g><g fill="#328484"><path fill="url(#lg0)" d="M 0 250 l 0 -250 250 0 250 0 0 250 0 250 -250 0 -250 0 0 -250 z  m 247 170.78 c 0 -36.80 -0.04 -43.76 -0.28 -43.96 -0.14 -0.12 -0.76 -0.36 -1.34 -0.54 -4.44 -1.30 -8.34 -4.90 -10.12 -9.28 -1.54 -3.82 -1.40 -8.68 0.34 -12.52 0.68 -1.52 3.26 -4.32 5.30 -5.78 1.38 -0.98 3.44 -2.06 4.60 -2.40 0.42 -0.14 0.96 -0.48 1.20 -0.78 0.40 -0.54 0.40 -0.64 0.40 -40.98 -0.02 -34.88 -0.06 -40.58 -0.30 -41.44 l -0.30 -1 -7.16 0 c -8.22 0 -7.44 -0.20 -8.14 2.02 -0.50 1.66 -1.32 5.78 -7.32 36.68 -2.80 14.46 -7.30 37.68 -10 51.60 -3.42 17.64 -4.88 25.58 -4.84 26.20 0.06 0.60 1.42 3.96 4.16 10.20 18.12 41.56 32.54 74.46 32.94 75.28 0.38 0.74 0.54 0.92 0.68 0.70 0.10 -0.16 0.18 -18.84 0.18 -44 z  m 7.50 41.92 c 0.84 -1.92 30.46 -69.62 34.52 -78.92 1.08 -2.48 2.02 -4.78 2.10 -5.10 0.06 -0.36 -1.46 -8.74 -4.22 -22.88 -2.38 -12.26 -6.62 -34.14 -9.42 -48.60 -8.20 -42.32 -8.24 -42.46 -9.02 -44.14 l -0.48 -1.06 -3.14 0.02 c -1.72 0.02 -4.98 0.10 -7.24 0.16 l -4.08 0.12 -0.30 0.90 c -0.28 0.80 -0.32 5.78 -0.38 41.38 -0.04 29.24 0 40.54 0.16 40.72 0.12 0.16 0.82 0.46 1.56 0.70 3.82 1.24 6.78 3.50 8.90 6.82 2.58 4.02 3.08 9.70 1.28 14.18 -0.84 2.08 -1.76 3.40 -3.94 5.66 -2.22 2.30 -3.34 3.06 -5.92 3.90 -0.68 0.22 -1.40 0.52 -1.64 0.66 l -0.42 0.26 -0.02 12.62 c 0 6.92 0.06 26.58 0.12 43.66 0.12 26.32 0.18 31.04 0.42 31 0.16 -0.04 0.68 -0.96 1.16 -2.06 z  m -49.32 -117.70 l 0.68 -0.58 1.94 -9.86 c 2.98 -15.08 2.92 -14.74 2.66 -15.12 -0.18 -0.32 -2.02 -0.34 -26.08 -0.40 -27.46 -0.04 -26.60 -0.08 -27.36 0.84 -0.16 0.20 -0.22 3.44 -0.18 12.52 l 0.06 12.24 0.60 0.48 0.60 0.48 23.20 0 23.20 -0.02 0.68 -0.58 z  m 137.64 0.08 l 0.48 -0.52 0.06 -12.02 c 0.02 -6.62 0 -12.24 -0.06 -12.48 -0.28 -1.14 1.62 -1.06 -27 -1.06 -24.70 0 -26.28 0.02 -26.68 0.36 l -0.42 0.34 0.90 4.60 c 0.50 2.54 1.60 8.06 2.42 12.30 0.84 4.22 1.60 7.84 1.70 8.02 0.42 0.82 3.04 0.90 27.50 0.94 l 20.62 0.04 0.48 -0.52 z  m 0.06 -90.50 l 0.52 -0.62 -0.04 -12.26 c -0.06 -10.02 -0.10 -12.30 -0.34 -12.58 -0.26 -0.30 -6.88 -0.32 -92.82 -0.28 -90.70 0.06 -92.56 0.06 -92.98 0.44 -0.42 0.38 -0.42 0.44 -0.42 12.50 0 13.38 -0.06 12.82 1.26 13.20 0.38 0.12 36.74 0.20 92.48 0.20 l 91.82 0.02 0.52 -0.62 z  m -206.04 -8.32 c 1.02 -1.06 1.16 -1.56 1.16 -4.18 0 -2.38 -0.16 -3.02 -0.96 -3.74 -0.36 -0.32 -1.02 -0.34 -10.10 -0.30 l -9.74 0.06 -0.74 0.76 -0.76 0.74 -0.06 2.36 c -0.06 2.12 -0.02 2.42 0.40 3.24 0.34 0.66 0.70 1.02 1.36 1.36 0.88 0.44 0.96 0.44 9.80 0.44 l 8.92 0 0.72 -0.74 z  m 246.70 -0.20 l 0.76 -0.92 0.08 -2.28 c 0.08 -2.82 -0.04 -3.48 -0.82 -4.36 l -0.60 -0.70 -9.30 0 c -10.10 0 -10.02 0 -11.08 1.12 -0.44 0.46 -0.48 0.70 -0.54 2.90 -0.06 2.10 -0.02 2.48 0.36 3.26 0.78 1.62 0.72 1.60 7.50 1.72 3.30 0.06 7.54 0.14 9.44 0.16 l 3.44 0.04 0.76 -0.94 z  m -111.54 -36.90 l 0.62 -0.84 -0.06 -9.14 c -0.06 -8.68 -0.08 -9.16 -0.44 -9.56 l -0.38 -0.42 -21.68 0.04 -21.70 0.06 -0.58 0.66 -0.58 0.64 0.04 8.86 c 0.06 9.62 0.04 9.42 1.22 10.14 0.62 0.38 1.20 0.40 21.78 0.40 l 21.16 0 0.60 -0.84 z  M289.16 125.48 C 289.16 103.90 271.66 86.40 250.08 86.40 228.50 86.40 211 103.90 211 125.48 211 147.08 228.50 164.58 250.08 164.58 271.66 164.58 289.16 147.08 289.16 125.48 Z M258.62 164.22  m -38.92 0.18 c 0.06 -0.10 0.34 -0.20 0.60 -0.20 0.26 0 0.52 -0.08 0.58 -0.18 0.08 -0.10 -1.50 -1.78 -3.50 -3.76 -2 -1.96 -4.30 -4.36 -5.14 -5.36 -3.30 -3.94 -5.92 -8.62 -7.46 -13.38 -0.48 -1.44 -1 -2.78 -1.18 -2.98 -0.32 -0.36 -1.28 -0.38 -23.02 -0.34 l -22.68 0.02 -0.54 0.52 -0.56 0.54 0 11.90 c 0 12.74 0 12.66 1 13.16 0.64 0.32 61.70 0.38 61.90 0.06 z  m 123.30 -0.44 c 0.40 -0.64 0.40 -0.98 0.36 -12.88 -0.06 -10 -0.10 -12.28 -0.34 -12.54 -0.24 -0.32 -2.10 -0.34 -23.10 -0.34 -17.72 0 -22.92 0.06 -23.30 0.26 -0.38 0.20 -0.60 0.68 -1.12 2.64 -1.14 4.14 -3.32 8.72 -5.80 12.10 -1.60 2.18 -4.14 4.98 -7.12 7.88 -2.14 2.08 -2.76 2.82 -2.60 2.98 0.14 0.14 0.88 0.30 1.68 0.36 0.80 0.06 14.82 0.12 31.20 0.14 l 29.74 0.04 0.40 -0.64 z  M259.60 43.34 C 259.60 38.20 255.42 34 250.26 34 245.10 34 240.92 38.20 240.92 43.34 240.92 48.50 245.10 52.68 250.26 52.68 255.42 52.68 259.60 48.50 259.60 43.34 Z M254.10 52.12 "/><path d="M265.10 125.38 C 265.10 133.56 258.46 140.20 250.28 140.20 242.08 140.20 235.46 133.56 235.46 125.38 235.46 117.18 242.08 110.54 250.28 110.54 258.46 110.54 265.10 117.18 265.10 125.38 Z M246.68 139.62 "/></g><g fill="#23656f"><path fill="url(#lg0)" d="M 0 250 l 0 -250 117.36 0 117.34 0 132.66 132.64 132.64 132.66 0 117.34 0 117.36 -250 0 -250 0 0 -250 z  m 247.26 177.30 c 0.10 -24.96 0.08 -37.40 -0.06 -38.22 -0.10 -0.66 -0.20 -3.64 -0.20 -6.62 0 -4.34 -0.06 -5.46 -0.28 -5.64 -0.14 -0.12 -0.76 -0.36 -1.34 -0.54 -4.44 -1.30 -8.34 -4.90 -10.12 -9.28 -1.54 -3.82 -1.40 -8.68 0.34 -12.52 0.68 -1.52 3.26 -4.32 5.30 -5.78 1.48 -1.06 3.76 -2.20 4.98 -2.52 0.50 -0.12 1 -0.34 1.14 -0.50 0.26 -0.32 0.26 -77.02 -0.02 -80.40 -0.10 -1.20 -0.26 -2.44 -0.38 -2.74 l -0.22 -0.56 -7.12 0.06 c -8.14 0.06 -7.40 -0.12 -8.08 2.08 -0.50 1.66 -1.32 5.78 -7.32 36.68 -2.80 14.46 -7.30 37.68 -10 51.60 -3.42 17.64 -4.88 25.58 -4.84 26.20 0.06 0.60 1.42 3.96 4.16 10.20 18.16 41.64 32.54 74.46 32.94 75.28 0.46 0.90 0.52 0.96 0.74 0.60 0.16 -0.28 0.26 -10.32 0.38 -37.38 z  m 7.24 35.40 c 0.84 -1.92 30.46 -69.62 34.52 -78.92 1.08 -2.48 2.02 -4.78 2.10 -5.10 0.06 -0.36 -1.46 -8.74 -4.22 -22.88 -2.38 -12.26 -6.62 -34.14 -9.42 -48.60 -6.16 -31.78 -7.96 -40.88 -8.44 -42.64 -0.28 -0.96 -0.32 -1.40 -0.16 -1.56 0.14 -0.14 0.14 -0.26 0.02 -0.36 -0.12 -0.08 -0.20 -0.26 -0.22 -0.38 -0.06 -0.78 -0.10 -0.88 -0.28 -0.76 -0.10 0.06 -0.14 0 -0.08 -0.18 0.08 -0.22 -0.08 -0.34 -0.66 -0.44 -0.88 -0.16 -13.82 0.04 -14.32 0.24 -0.80 0.30 -0.80 0.78 -0.88 23.94 -0.06 15.82 -0.02 22.34 0.12 22.24 0.16 -0.08 0.22 5.48 0.22 18.86 0 15.80 0.04 19.02 0.28 19.22 0.14 0.12 0.84 0.42 1.54 0.64 3.78 1.24 6.72 3.50 8.84 6.80 2.58 4.02 3.08 9.70 1.28 14.18 -0.84 2.08 -1.76 3.40 -3.94 5.66 -2.22 2.30 -3.34 3.06 -5.92 3.90 -0.68 0.22 -1.42 0.52 -1.64 0.66 l -0.44 0.28 0 42.72 c 0 23.48 0.06 43.14 0.12 43.66 0.10 0.66 0.22 0.92 0.42 0.88 0.16 -0.04 0.68 -0.96 1.16 -2.06 z  m 88.12 -117.42 l 0.68 -0.70 0.06 -12.04 c 0.02 -6.62 0 -12.24 -0.06 -12.48 -0.06 -0.24 -0.24 -0.58 -0.42 -0.74 -0.28 -0.30 -2.94 -0.32 -27.66 -0.32 l -27.34 0.02 -0.04 0.54 c -0.06 0.88 4.94 25.70 5.22 25.88 0.30 0.20 0.16 0.18 4.34 0.34 1.92 0.08 12.72 0.16 24.02 0.18 l 20.50 0.04 0.70 -0.72 z  m -136.50 0.22 c 0.32 -0.16 0.52 -0.30 0.42 -0.30 -0.08 0 -0.02 -0.20 0.14 -0.44 0.16 -0.26 0.34 -0.72 0.40 -1.06 0.06 -0.32 0.84 -4.20 1.74 -8.60 0.88 -4.40 1.66 -8.26 1.72 -8.60 0.04 -0.32 0.32 -1.68 0.60 -3 0.26 -1.32 0.52 -2.62 0.58 -2.90 0.06 -0.28 0.14 -0.62 0.18 -0.74 0.04 -0.14 -0.12 -0.38 -0.34 -0.56 -0.38 -0.26 -3.64 -0.30 -26.76 -0.30 -28.02 0 -27.02 -0.04 -27.78 0.88 -0.16 0.20 -0.22 3.64 -0.18 12.52 l 0.06 12.24 0.60 0.48 0.60 0.48 23.40 0.04 c 12.88 0.04 23.54 0.08 23.72 0.12 0.18 0.02 0.60 -0.10 0.90 -0.26 z  m 62.90 -82.16 c -0.20 -0.18 -0.22 -0.16 -0.10 0.12 0.06 0.20 0.18 0.30 0.24 0.24 0.06 -0.06 0 -0.22 -0.14 -0.36 z  m 73.86 -8.76 l 0.52 -0.62 -0.04 -12.26 c -0.06 -10.02 -0.10 -12.30 -0.34 -12.58 -0.26 -0.30 -6.88 -0.32 -92.82 -0.28 -90.70 0.06 -92.56 0.06 -92.98 0.44 -0.42 0.38 -0.42 0.44 -0.42 12.50 0 13.38 -0.06 12.82 1.26 13.20 0.38 0.12 36.74 0.20 92.48 0.20 l 91.82 0.02 0.52 -0.62 z  m -206.04 -8.32 c 1.02 -1.06 1.16 -1.56 1.16 -4.18 0 -2.38 -0.16 -3.02 -0.96 -3.74 -0.36 -0.32 -1.02 -0.34 -10.10 -0.30 l -9.74 0.06 -0.74 0.76 -0.76 0.74 -0.06 2.36 c -0.06 2.12 -0.02 2.42 0.40 3.24 0.34 0.66 0.70 1.02 1.36 1.36 0.88 0.44 0.96 0.44 9.80 0.44 l 8.92 0 0.72 -0.74 z  m 246.70 -0.20 l 0.76 -0.92 0.08 -2.28 c 0.08 -2.82 -0.04 -3.48 -0.82 -4.36 l -0.60 -0.70 -9.30 0 c -10.10 0 -10.02 0 -11.08 1.12 -0.44 0.46 -0.48 0.70 -0.54 2.90 -0.06 2.10 -0.02 2.48 0.36 3.26 0.78 1.62 0.72 1.60 7.50 1.72 3.30 0.06 7.54 0.14 9.44 0.16 l 3.44 0.04 0.76 -0.94 z  m -111.84 -36.50 c 0.38 -0.46 0.76 -1.04 0.82 -1.26 0.06 -0.22 0.06 -4.42 0.04 -9.32 -0.06 -8.48 -0.08 -8.96 -0.44 -9.36 l -0.38 -0.42 -21.68 0.04 -21.70 0.06 -0.58 0.66 c -0.32 0.34 -0.66 0.64 -0.78 0.64 -0.14 0 -0.20 2.96 -0.20 8.76 0 9.74 -0.02 9.66 1.38 10.58 l 0.68 0.46 21.06 0 21.04 0 0.74 -0.84 z  m 1.34 -5.22 c 0.20 -7.14 0.18 -13.20 -0.04 -13.54 -0.12 -0.20 -0.20 2.82 -0.20 8.70 l 0 9 -0.52 0.80 -0.54 0.80 0.58 -0.56 0.58 -0.54 0.14 -4.66 z  m 69.54 -39.40 c 0.26 -0.12 0.68 -0.50 0.90 -0.80 0.42 -0.56 0.42 -0.70 0.42 -12.92 0 -11.48 -0.02 -12.38 -0.36 -12.88 l -0.34 -0.54 -24.52 0 -24.50 0 -0.48 0.46 c -0.32 0.30 -0.66 1.14 -1.08 2.66 -1.02 3.72 -2.92 7.68 -5.16 10.82 -2.34 3.26 -6.64 7.76 -10.30 10.82 -0.86 0.70 -1.56 1.36 -1.56 1.44 0 0.10 0.52 0.32 1.16 0.52 1.54 0.46 10.04 0.60 41.34 0.64 18.70 0.02 24.10 -0.02 24.48 -0.22 z  m -119.68 -0.34 c -0.08 -0.12 0.12 -0.20 0.44 -0.20 0.64 0 1.14 -0.26 1.04 -0.54 -0.04 -0.12 -0.88 -0.88 -1.88 -1.70 -2.58 -2.16 -8.16 -7.94 -9.82 -10.16 -2.74 -3.66 -4.56 -7.12 -5.80 -11 -0.44 -1.40 -0.88 -2.42 -1.12 -2.58 -0.32 -0.24 -3.94 -0.28 -24.12 -0.24 l -23.74 0.04 -0.56 0.54 -0.54 0.52 0.04 12.16 0.06 12.14 0.46 0.46 0.46 0.46 30.94 0.10 c 17.02 0.06 31.68 0.12 32.60 0.16 1.08 0.02 1.62 -0.02 1.54 -0.16 z  M289.38 125.58 C 289.38 103.96 271.84 86.42 250.22 86.42 228.58 86.42 211.06 103.96 211.06 125.58 211.06 147.20 228.58 164.74 250.22 164.74 271.84 164.74 289.38 147.20 289.38 125.58 Z M258.62 164.22  M260.24 43.10 C 260.24 37.60 255.76 33.14 250.26 33.14 244.74 33.14 240.28 37.60 240.28 43.10 240.28 48.62 244.74 53.08 250.26 53.08 255.76 53.08 260.24 48.62 260.24 43.10 Z M252.30 52.80 "/><path d="M 342.60 164.72 c 0 -0.04 0.16 -0.20 0.36 -0.34 0.30 -0.26 0.32 -0.24 0.06 0.08 -0.26 0.32 -0.42 0.42 -0.42 0.26 z "/><path fill="url(#lg0)" d="M264.88 125.12 C 264.88 133.18 258.34 139.72 250.28 139.72 242.22 139.72 235.68 133.18 235.68 125.12 235.68 117.06 242.22 110.52 250.28 110.52 258.34 110.52 264.88 117.06 264.88 125.12 Z M248.60 139.40 "/><path d="M 255 51.70 c 0 -0.06 0.04 -0.10 0.10 -0.10 0.06 0 0.10 0.04 0.10 0.10 0 0.06 -0.04 0.10 -0.10 0.10 -0.06 0 -0.10 -0.04 -0.10 -0.10 z "/></g><g fill="#185261"><path fill="url(#lg0)" d="M 0 250 l 0 -250 54.36 0 54.34 0 52.80 52.80 c 29.04 29.04 52.84 52.94 52.86 53.12 0.04 0.18 -0.22 1 -0.60 1.86 -0.38 0.84 -0.94 2.38 -1.28 3.42 -0.32 1.04 -0.64 1.94 -0.72 1.96 -0.10 0.04 -0.12 0.14 -0.08 0.22 0.04 0.06 -0.14 1.20 -0.40 2.52 -3.42 16.78 3.74 33.80 18.16 43.18 2.18 1.42 6.50 3.50 8.88 4.28 1.98 0.66 4.36 1.26 6.68 1.66 1.60 0.28 8.92 0.38 11.20 0.14 3.10 -0.30 9.22 -2.06 11.80 -3.36 1.32 -0.66 1.80 -0.74 1.80 -0.30 0 0.16 -0.68 0.66 -1.50 1.12 -1.80 0.98 -1.94 1.40 -0.64 1.98 0.56 0.26 1.72 0.46 3.38 0.58 1.38 0.12 2.72 0.30 2.98 0.40 0.26 0.10 14.28 14 31.16 30.90 27.08 27.08 30.64 30.70 30.20 30.80 -0.26 0.04 -4.26 0.14 -8.88 0.22 l -8.40 0.12 -0.60 0.58 -0.62 0.60 -79.62 0.04 c -77.98 0.06 -79.62 0.06 -80.04 0.44 -0.42 0.38 -0.42 0.44 -0.42 12.50 0 13.48 -0.06 12.82 1.36 13.22 0.50 0.14 29.94 0.20 92.42 0.20 79.20 0 91.64 0.04 91.44 0.28 -0.20 0.24 -0.16 0.26 0.16 0.18 0.24 -0.06 0.38 -0.18 0.32 -0.26 -0.06 -0.08 0.04 -0.14 0.22 -0.12 0.18 0 0.52 -0.24 0.76 -0.54 0.40 -0.54 0.42 -0.84 0.58 -8.40 0.08 -4.32 0.16 -9.96 0.18 -12.54 0 -2.58 0.08 -4.50 0.14 -4.24 0.06 0.26 0.20 0.44 0.30 0.42 0.10 -0.02 35.08 34.88 77.74 77.54 l 77.58 77.58 0 57.44 0 57.46 -250 0 -250 0 0 -250 z  m 253.60 215.04 c -0.12 -0.04 -0.14 -0.18 -0.04 -0.30 0.08 -0.14 0.54 -1.10 1 -2.14 0.44 -1.04 7.94 -18.18 16.66 -38.10 8.70 -19.90 16.72 -38.24 17.80 -40.72 1.08 -2.48 2.02 -4.78 2.10 -5.10 0.06 -0.36 -0.56 -4 -1.62 -9.48 -2.14 -11.10 -8.08 -41.66 -14 -72.20 -3.32 -17.04 -4.48 -23.38 -4.32 -23.62 0.14 -0.24 -0.06 -1.66 -0.76 -5.10 -1.20 -5.92 -1.84 -8.12 -2.52 -8.56 -0.42 -0.28 -1.36 -0.32 -7.20 -0.32 -4.06 0 -6.88 0.08 -7.10 0.20 -0.56 0.30 -0.78 1.24 -1 4.40 -0.26 3.92 -0.26 43.46 0 43.30 0.14 -0.08 0.20 6.26 0.20 18.86 0 15.80 0.04 19.02 0.28 19.22 0.14 0.12 0.84 0.42 1.54 0.64 3.78 1.24 6.72 3.50 8.84 6.80 2.58 4.02 3.08 9.70 1.28 14.18 -0.84 2.08 -1.76 3.40 -3.94 5.66 -2.22 2.32 -3.34 3.06 -5.96 3.92 -1.38 0.44 -1.90 0.76 -2.02 1.22 -0.04 0.16 -0.12 19.90 -0.18 43.84 -0.10 46.38 -0.14 44.68 0.80 43.82 0.24 -0.22 0.30 -0.38 0.16 -0.42 z  m -6.30 0.32 c 0.16 -0.58 0.26 -85.76 0.10 -85.76 -0.12 0 -0.22 1.90 -0.26 4.46 -0.04 4.40 -0.04 4.38 -0.10 -1.28 -0.04 -4.56 -0.10 -5.78 -0.32 -5.96 -0.14 -0.12 -0.76 -0.36 -1.34 -0.54 -4.44 -1.30 -8.34 -4.90 -10.12 -9.28 -1.54 -3.82 -1.40 -8.68 0.34 -12.52 0.68 -1.52 3.24 -4.30 5.32 -5.80 1.54 -1.10 4.34 -2.44 5.38 -2.56 0.44 -0.06 0.90 -0.24 1.04 -0.42 0.32 -0.48 0.16 -81.94 -0.18 -83.98 -0.40 -2.34 0.22 -2.18 -7.96 -2.14 -7.20 0.04 -7.56 0.08 -7.30 0.78 0.06 0.14 0 0.20 -0.12 0.14 -0.12 -0.08 -0.18 -0.02 -0.16 0.12 0.04 0.16 -0.06 0.50 -0.22 0.78 -0.16 0.28 -0.30 0.68 -0.30 0.90 0 0.22 -0.06 0.50 -0.14 0.60 -0.12 0.20 -0.38 1.32 -0.48 2 -0.02 0.22 -0.10 0.54 -0.18 0.72 -0.06 0.20 -0.04 0.40 0.08 0.48 0.12 0.06 0.22 0.28 0.20 0.46 0 0.28 -0.04 0.26 -0.16 -0.06 -0.16 -0.40 -0.16 -0.40 -0.30 0.02 -0.06 0.24 -0.26 1.04 -0.42 1.80 -0.16 0.76 -0.44 2.04 -0.62 2.82 -0.30 1.24 -0.30 1.54 -0.08 1.96 0.14 0.28 0.20 0.56 0.14 0.64 -0.08 0.06 -0.14 -0.04 -0.16 -0.26 0 -0.36 -0.02 -0.36 -0.16 0.02 -0.10 0.22 -0.08 0.46 0.02 0.52 0.12 0.08 -1.76 10.26 -4.84 26.10 -2.76 14.30 -7.28 37.60 -10.02 51.78 -3.50 17.98 -4.98 26.08 -4.92 26.70 0.04 0.60 1.40 3.96 4.14 10.20 17.92 41.10 32.54 74.46 32.92 75.26 0.28 0.52 0.58 0.94 0.70 0.94 0.16 0 0.14 0.10 -0.02 0.30 -0.20 0.24 -0.18 0.30 0.08 0.30 0.18 0 0.36 -0.12 0.42 -0.24 z  m 95.22 -119.54 c -0.06 -0.10 0.02 -0.16 0.20 -0.14 0.18 0 0.52 -0.24 0.76 -0.54 0.42 -0.56 0.42 -0.66 0.48 -12.76 0.04 -11 0.02 -12.26 -0.28 -12.88 l -0.32 -0.70 -28.32 0 c -15.56 0 -28.24 0.06 -28.18 0.12 0.06 0.08 0 0.24 -0.14 0.38 -0.20 0.22 0.22 2.62 2.28 12.90 1.72 8.64 2.60 12.68 2.80 12.82 0.72 0.44 2.14 0.64 5.50 0.78 5.48 0.20 45.34 0.22 45.22 0.02 z  m -136.62 -0.22 c 0.06 -0.12 0.34 -0.14 0.60 -0.08 0.58 0.14 1.26 -0.48 1.52 -1.38 0.10 -0.34 0.82 -3.82 1.60 -7.74 0.78 -3.90 1.86 -9.30 2.40 -11.98 0.54 -2.68 0.98 -4.90 0.98 -4.94 0 -0.20 -1.28 -0.70 -1.54 -0.60 -0.18 0.08 -12.16 0.12 -26.66 0.12 -28.02 0 -27.02 -0.04 -27.78 0.88 -0.16 0.20 -0.22 3.64 -0.18 12.52 l 0.06 12.24 0.60 0.48 0.60 0.48 23.40 0.04 c 12.88 0.04 23.60 0.08 23.84 0.12 0.24 0.02 0.50 -0.06 0.56 -0.16 z  m 2.04 -0.32 c -0.06 -0.06 -0.24 -0.08 -0.38 -0.02 -0.16 0.06 -0.10 0.12 0.12 0.12 0.22 0.02 0.34 -0.04 0.26 -0.10 z  m 64.18 -68.32 c -0.06 -0.26 -0.20 -1 -0.32 -1.66 -0.30 -1.54 -0.42 -1.96 -0.54 -1.82 -0.16 0.16 0.58 3.92 0.78 3.92 0.10 0 0.12 -0.20 0.08 -0.44 z  m -41.12 -14.26 c 0 -0.06 -0.04 -0.10 -0.10 -0.10 -0.06 0 -0.10 0.04 -0.10 0.10 0 0.06 0.04 0.10 0.10 0.10 0.06 0 0.10 -0.04 0.10 -0.10 z  m -94.16 -16.44 c 1.02 -1.06 1.16 -1.56 1.16 -4.18 0 -2.38 -0.16 -3.02 -0.96 -3.74 -0.36 -0.32 -1.02 -0.34 -10.10 -0.30 l -9.74 0.06 -0.74 0.76 -0.76 0.74 -0.06 2.36 c -0.06 2.12 -0.02 2.42 0.40 3.24 0.34 0.66 0.70 1.02 1.36 1.36 0.88 0.44 0.96 0.44 9.80 0.44 l 8.92 0 0.72 -0.74 z  m 135.30 -36.20 c 0.24 -0.16 0.62 -0.68 0.86 -1.14 0.38 -0.82 0.40 -1.18 0.40 -9.70 0 -9.54 -0.02 -9.80 -1.06 -10.52 -0.38 -0.26 -0.46 -0.26 -0.84 0.10 -0.42 0.38 -0.84 0.40 -21.78 0.44 l -21.36 0.06 -0.58 0.66 c -0.32 0.34 -0.66 0.64 -0.78 0.64 -0.14 0 -0.20 2.96 -0.20 8.76 0 9.64 0 9.60 1.26 10.52 0.56 0.42 0.72 0.42 21.70 0.52 11.62 0.06 21.32 0.06 21.54 0.02 0.22 -0.04 0.60 -0.20 0.84 -0.36 z  m -45.28 -45.24 c 1.86 -0.26 2.74 -0.50 2.74 -0.76 0 -0.10 -0.80 -0.68 -1.76 -1.30 -2.52 -1.64 -5.14 -3.90 -8.44 -7.28 -5.38 -5.50 -7.44 -8.70 -9.62 -14.88 -0.84 -2.42 -1.08 -2.64 -3.18 -2.98 -2 -0.32 -3.40 -0.28 -3.86 0.14 -0.36 0.32 -1.76 0.34 -22.64 0.40 -21.84 0.06 -22.26 0.06 -22.60 0.44 -0.20 0.22 -0.58 0.40 -0.84 0.40 l -0.46 0 0 12.10 c 0 13.42 -0.02 13.24 1.24 13.80 0.58 0.26 5.16 0.28 34.16 0.22 24.84 -0.04 33.96 -0.12 35.26 -0.30 z "/></g><g fill="#103b4d"><path fill="url(#lg0)" d="M 0 267.50 c 0 -127.88 0.06 -232.50 0.16 -232.50 0.18 0 192.04 191.84 192.04 192.02 0 0.08 -0.16 0.20 -0.34 0.28 -0.20 0.06 -7.52 0.18 -16.26 0.24 l -15.90 0.10 -0.60 0.56 c -0.32 0.30 -0.82 0.62 -1.10 0.70 -0.28 0.08 -0.66 0.28 -0.84 0.46 -0.34 0.28 -0.36 1.12 -0.36 12.42 0 13.48 -0.06 12.82 1.36 13.22 0.50 0.14 30.10 0.22 92.44 0.24 l 91.70 0.06 -73.70 0.04 c -40.52 0.04 -73.76 0.14 -73.84 0.22 -0.14 0.14 32.18 0.54 43.58 0.54 3 0 3.20 0.02 3.04 0.36 -0.24 0.44 0.26 0.48 0.70 0.04 0.22 -0.24 0.82 -0.30 2.60 -0.30 2.16 0 2.30 0.02 2.42 0.42 0.12 0.34 0.18 0.36 0.32 0.16 0.12 -0.20 0.72 0.30 2.32 1.86 l 2.16 2.14 0.06 4.26 c 0.02 2.34 0.12 21.38 0.20 42.30 0.12 35.30 0.16 38.08 0.48 38.38 0.40 0.40 4 1.68 4.88 1.74 0.78 0.06 3.24 1.90 4.42 3.28 2.68 3.20 3.90 6.56 3.82 10.70 l -0.02 2.06 -0.16 -2.60 c -0.08 -1.42 -0.28 -3.04 -0.44 -3.60 -0.80 -2.78 -2.18 -5.14 -4.08 -7.04 -1.24 -1.22 -3.38 -2.80 -3.56 -2.62 -0.06 0.06 0.30 0.36 0.80 0.64 2.90 1.70 5.52 5.26 6.54 8.86 0.56 2.02 0.62 5.72 0.10 7.66 -0.76 2.84 -2.20 5.08 -5.42 8.38 -1.82 1.84 -2.68 2.58 -3.48 2.94 -0.58 0.26 -1.16 0.48 -1.28 0.48 -0.34 0 -1.96 0.80 -1.94 0.96 0.12 0.82 -0.12 19.96 -0.22 19.44 -0.10 -0.38 -0.14 14.80 -0.14 33.74 0.04 30.98 0.08 34.48 0.36 34.76 0.28 0.28 0.34 0.28 0.68 -0.10 0.24 -0.26 0.28 -0.40 0.10 -0.40 -0.16 0 -0.18 -0.08 -0.06 -0.24 0.10 -0.14 0.56 -1.12 1.02 -2.16 0.44 -1.04 7.94 -18.18 16.66 -38.10 8.70 -19.90 16.60 -37.96 17.52 -40.10 0.94 -2.14 1.84 -4.04 2 -4.20 0.18 -0.20 0.14 0.02 -0.12 0.60 -6.36 14.42 -22 50.30 -21.94 50.34 0.12 0.12 22.18 -50.06 22.86 -52.02 0.20 -0.56 0.22 -1.02 0.08 -1.80 -0.10 -0.56 -0.96 -5.06 -1.92 -10.02 -3.70 -19.22 -4.84 -25.32 -4.86 -25.86 -0.02 -0.26 -0.12 -0.94 -0.22 -1.50 -0.12 -0.58 -0.26 -1.36 -0.30 -1.74 -0.04 -0.38 -0.32 -1.74 -0.58 -3 -0.28 -1.26 -0.56 -2.70 -0.64 -3.20 -0.12 -0.90 -1.20 -6.98 -2.34 -13.26 -0.34 -1.84 -0.56 -3.40 -0.48 -3.48 0.14 -0.14 2.92 2.50 2.92 2.80 0 0.08 -0.32 0.34 -0.70 0.56 -0.56 0.34 -0.70 0.54 -0.70 1.04 0 1.04 0.74 3.62 1.38 4.90 0.40 0.78 0.76 2.08 1.10 3.86 0.58 2.96 1.50 6.22 1.72 6.08 0.24 -0.14 0.62 1.66 0.70 3.30 0.08 1.30 0.22 2.02 0.82 4.14 0.06 0.26 0.20 0.40 0.32 0.34 0.10 -0.06 0.12 0.12 0.04 0.44 -0.10 0.40 -0.08 0.50 0.12 0.38 0.18 -0.12 0.22 0.02 0.12 0.52 -0.06 0.38 -0.06 0.56 0 0.44 0.18 -0.42 0.52 -0.30 0.38 0.14 -0.08 0.26 -0.04 0.40 0.12 0.40 0.14 0 0.18 0.06 0.12 0.12 -0.08 0.08 0.06 0.30 0.28 0.50 0.44 0.38 1.24 0.60 2.66 0.70 1.98 0.14 25.14 0.46 34.76 0.48 6.32 0.02 10.60 0.10 10.66 0.22 0.08 0.10 0.28 0.18 0.46 0.18 0.32 0 153.24 152.74 153.24 153.06 0 0.08 -110.42 0.14 -245.40 0.14 l -245.40 0 0 -232.50 z  m 247.30 197.86 c 0.16 -0.58 0.26 -85.76 0.10 -85.76 -0.12 0 -0.22 1.90 -0.26 4.46 -0.04 4.40 -0.04 4.38 -0.10 -1.28 -0.04 -4.56 -0.10 -5.78 -0.32 -5.96 -0.14 -0.12 -0.76 -0.36 -1.34 -0.54 -4.44 -1.30 -8.34 -4.90 -10.12 -9.28 -1.54 -3.82 -1.40 -8.68 0.34 -12.52 0.68 -1.52 3.24 -4.30 5.32 -5.80 1.54 -1.10 4.34 -2.44 5.38 -2.56 0.44 -0.06 0.90 -0.24 1.02 -0.42 0.16 -0.22 0.26 -6.44 0.36 -23.16 0.22 -37.88 0.26 -62.54 0.12 -62.54 -0.08 0 -0.20 -0.48 -0.26 -1.04 -0.08 -0.58 -0.30 -1.28 -0.50 -1.56 -0.36 -0.46 -0.50 -0.50 -2.46 -0.56 -1.14 -0.04 -2.44 0.04 -2.88 0.14 -0.44 0.12 -2.62 0.24 -4.84 0.26 -2.20 0.04 -4 0.08 -3.96 0.12 0.02 0.04 -0.20 0.30 -0.48 0.60 -0.86 0.86 -1.88 4.64 -3.22 12.04 -0.74 4.12 -7.14 37.40 -9.30 48.50 -2.08 10.64 -4.32 22.22 -8.32 43.20 -2.32 12.06 -3 16.04 -2.94 16.90 0.06 0.90 0.82 2.80 4.04 10.16 2.18 4.96 4.08 9.04 4.20 9.04 0.12 0 6.42 14.20 14.02 31.56 15.28 34.98 15.58 35.64 15.92 35.64 0.16 0 0.16 0.08 -0.02 0.30 -0.20 0.24 -0.18 0.30 0.08 0.30 0.18 0 0.36 -0.12 0.42 -0.24 z  m -37.96 -119.96 c 0.50 -0.18 0.70 -0.40 0.86 -0.96 0.36 -1.34 2 -8.70 3.30 -14.84 0.30 -1.38 0.80 -3.62 1.10 -5 0.90 -4.02 1.08 -5.20 0.84 -5.44 -0.12 -0.12 -0.80 -0.36 -1.48 -0.52 -1.04 -0.26 -3.78 -0.32 -16.16 -0.38 -14.86 -0.08 -14.92 -0.08 -15.28 0.32 -0.38 0.42 -0.52 0.42 -12.22 0.42 -12.46 0 -12.56 0 -13.28 0.88 -0.16 0.20 -0.22 3.64 -0.18 12.52 l 0.06 12.24 0.60 0.48 0.60 0.48 23.40 0.06 c 26.46 0.06 26.96 0.06 27.84 -0.26 z  m -71.76 -98.98 c 1.04 -1.04 1.28 -1.98 1.18 -4.72 -0.06 -1.98 -0.12 -2.30 -0.62 -3.14 -0.70 -1.22 -1.16 -1.48 -1.64 -0.96 -0.34 0.38 -0.74 0.40 -9.82 0.44 l -9.48 0.06 -0.74 0.76 -0.76 0.74 -0.06 2.36 c -0.06 2.12 -0.02 2.42 0.40 3.24 0.90 1.74 0.58 1.68 11.16 1.80 5.12 0.06 9.36 0.12 9.46 0.16 0.08 0.02 0.50 -0.32 0.92 -0.74 z "/><path fill="url(#lg0)" d="M 197 227.20 c 0.24 -0.16 -20.18 -20.68 -98.34 -98.84 -90.96 -90.96 -98.66 -98.70 -98.66 -99.30 0 -0.36 0.06 -0.66 0.16 -0.66 0.08 0 44.82 44.68 99.44 99.30 78.68 78.68 99.24 99.34 99 99.50 -0.16 0.10 -0.66 0.20 -1.10 0.20 -0.58 0 -0.72 -0.06 -0.50 -0.20 z "/></g><g fill="#062130"><path fill="url(#lg0)" d="M 0 340.80 c 0 -87.56 0.06 -159.20 0.16 -159.20 0.08 0 35.08 34.94 77.76 77.66 l 77.62 77.64 0.24 3.70 c 0.30 4.42 0.30 4.50 0.92 5.10 0.60 0.62 0.70 0.64 5.06 0.84 l 3.66 0.18 24.60 24.60 c 13.54 13.52 24.88 24.98 25.24 25.48 0.34 0.50 0.70 0.96 0.80 1.02 0.10 0.06 0.16 0.16 0.12 0.20 -0.10 0.18 0.46 1.58 0.64 1.58 0.10 0 0.16 0.06 0.14 0.16 -0.08 0.30 0.48 1.64 0.68 1.64 0.12 0 0.18 0.06 0.10 0.12 -0.16 0.16 0.26 1.28 0.50 1.28 0.10 0 0.12 0.10 0.06 0.20 -0.06 0.12 -0.02 0.20 0.12 0.20 0.14 0 0.18 0.06 0.12 0.14 -0.08 0.06 0.08 0.50 0.34 0.94 0.26 0.46 1.16 2.40 2.02 4.32 0.84 1.92 1.74 3.86 1.98 4.30 0.26 0.44 0.78 1.56 1.18 2.50 0.40 0.94 1 2.26 1.34 2.96 0.32 0.68 0.60 1.28 0.60 1.34 0 0.06 0.36 0.88 0.78 1.84 0.42 0.98 2.24 5.10 4.02 9.16 4 9.10 5.92 13.48 7.30 16.60 0.58 1.32 2.56 5.86 4.42 10.06 1.84 4.22 3.52 7.90 3.72 8.16 0.22 0.26 0.52 0.48 0.66 0.48 0.76 0 0.78 -0.40 0.92 -17.40 0.14 -15.98 0.30 -22.52 0.58 -22.70 0.06 -0.04 0.84 0.64 1.70 1.50 l 1.58 1.60 0.14 4.04 c 0.08 2.24 0.22 10.40 0.28 18.16 0.08 7.76 0.24 14.26 0.34 14.46 0.48 0.94 1.64 -0.20 2.44 -2.40 0.60 -1.66 1.14 -2.88 2.24 -5.22 0.60 -1.24 1.08 -2.28 1.08 -2.34 0 -0.22 2.38 -5.30 4.02 -8.54 0.98 -1.96 1.72 -3.56 1.64 -3.56 -0.08 0 -0.06 -0.08 0.04 -0.16 0.12 -0.08 0.38 -0.40 0.58 -0.72 l 0.36 -0.58 28.78 28.78 c 15.84 15.82 28.78 28.84 28.78 28.92 0 0.10 -72.54 0.16 -161.20 0.16 l -161.20 0 0 -159.20 z "/><path d="M 253.58 464.68 c 0.12 -0.22 0.62 -1.26 1.10 -2.32 0.50 -1.08 0.94 -1.96 1 -1.96 0.26 0 -1.80 4.48 -2.08 4.56 -0.16 0.06 -0.18 -0.02 -0.02 -0.28 z "/></g><g fill="#010b12"><path fill="url(#lg0)" d="M 0 387.40 c 0 -61.92 0.06 -112.60 0.16 -112.60 0.18 0 225.04 224.86 225.04 225.06 0 0.08 -50.66 0.14 -112.60 0.14 l -112.60 0 0 -112.60 z "/></g></svg>
